<svg width="42" height="67" viewBox="0 0 42 67" fill="none" xmlns="http://www.w3.org/2000/svg">
<path fill-rule="evenodd" clip-rule="evenodd" d="M24.2308 65.3853L40.3846 49.4377C41.1923 48.6403 42 47.8429 42 46.2481C42 44.6534 40.3846 43.0586 38.7692 43.0586H30.6923C29.8846 43.0586 29.0769 42.2612 29.0769 41.4638V1.59476C29.0769 0.797382 28.2692 0 27.4615 0H14.5385C13.7308 0 12.9231 0.797382 12.9231 1.59476V41.4638C12.9231 42.2612 12.1154 43.0586 11.3077 43.0586H3.23077C1.61538 43.0586 0 44.6534 0 46.2481C0 47.8429 0.807692 48.6403 1.61538 49.4377L17.7692 65.3853C19.95 67.5382 22.05 67.5382 24.2308 65.3853Z" fill="#4D4D4D"/>
</svg>
