<svg xmlns="http://www.w3.org/2000/svg" xmlns:xlink="http://www.w3.org/1999/xlink" width="37" height="37" viewBox="0 0 37 37">
  <defs>
    <clipPath id="clip-eye-off-grey">
      <rect width="37" height="37"/>
    </clipPath>
  </defs>
  <g id="eye-off-grey" clip-path="url(#clip-eye-off-grey)">
    <rect width="37" height="37" fill="rgba(255,255,255,0)"/>
    <rect id="Rectangle_1" data-name="Rectangle 1" width="37" height="37" fill="rgba(255,255,255,0.01)" opacity="0.011"/>
    <g id="Icon_feather-eye-off" data-name="Icon feather-eye-off" transform="translate(0.5 0.5)">
      <path id="Path_1" data-name="Path 1" d="M26.91,26.91A15.105,15.105,0,0,1,18,30C7.5,30,1.5,18,1.5,18A27.675,27.675,0,0,1,9.09,9.09m5.76-2.73A13.68,13.68,0,0,1,18,6C28.5,6,34.5,18,34.5,18a27.75,27.75,0,0,1-3.24,4.785m-10.08-1.6a4.5,4.5,0,1,1-6.36-6.36" fill="none" stroke="#565656" stroke-linecap="round" stroke-linejoin="round" stroke-width="3"/>
      <path id="Path_2" data-name="Path 2" d="M1.5,1.5l33,33" fill="none" stroke="#565656" stroke-linecap="round" stroke-linejoin="round" stroke-width="3"/>
    </g>
  </g>
</svg>
