<svg width="32" height="21" viewBox="0 0 32 21" fill="none" xmlns="http://www.w3.org/2000/svg">
<path fill-rule="evenodd" clip-rule="evenodd" d="M16 18.2757C14.3053 19.7379 12.107 20.6207 9.70492 20.6207C4.34504 20.6207 0 16.2257 0 10.8042C0 5.38276 4.34504 0.987793 9.70492 0.987793C12.107 0.987793 14.3053 1.87054 16 3.33281C17.6947 1.87054 19.893 0.987793 22.2951 0.987793C27.655 0.987793 32 5.38276 32 10.8042C32 16.2257 27.655 20.6207 22.2951 20.6207C19.893 20.6207 17.6947 19.7379 16 18.2757Z" fill="#ED0006"/>
<path fill-rule="evenodd" clip-rule="evenodd" d="M16 18.2757C18.0867 16.4751 19.4098 13.796 19.4098 10.8042C19.4098 7.81249 18.0867 5.13333 16 3.33281C17.6947 1.87054 19.893 0.987793 22.2951 0.987793C27.655 0.987793 32 5.38276 32 10.8042C32 16.2257 27.655 20.6207 22.2951 20.6207C19.893 20.6207 17.6947 19.7379 16 18.2757Z" fill="#F9A000"/>
<path fill-rule="evenodd" clip-rule="evenodd" d="M16 18.2758C18.0867 16.4753 19.4098 13.7961 19.4098 10.8044C19.4098 7.81267 18.0867 5.13352 16 3.33301C13.9134 5.13352 12.5902 7.81267 12.5902 10.8044C12.5902 13.7961 13.9134 16.4753 16 18.2758Z" fill="#FF5E00"/>
</svg>
