<svg xmlns="http://www.w3.org/2000/svg" width="77" height="77" viewBox="0 0 77 77">
  <g id="Group_10" data-name="Group 10" transform="translate(-1150 -415)">
    <circle id="Ellipse_1" data-name="Ellipse 1" cx="38.5" cy="38.5" r="38.5" transform="translate(1150 415)" fill="#bcf05d"/>
    <path id="Icon_awesome-check" data-name="Icon awesome-check" d="M11.839,30.059.51,18.731a1.743,1.743,0,0,1,0-2.465L2.975,13.8a1.743,1.743,0,0,1,2.465,0l7.631,7.631L29.416,5.088a1.743,1.743,0,0,1,2.465,0l2.465,2.465a1.743,1.743,0,0,1,0,2.465L14.3,30.059A1.743,1.743,0,0,1,11.839,30.059Z" transform="translate(1170.572 437.927)"/>
  </g>
</svg>
